#N canvas 0 61 1235 694 12;
#X obj 100 100 cnv 19 318 30 empty empty empty 20 12 0 12 #feddb9 #404040 0;
#X obj 110 12 loadbang;
#X msg 110 68 120;
#X msg 205 68 4;
#X obj 339 109 hradio 18 1 0 4 empty empty empty 0 -10 0 12 #fbefd0 #000000 #000000 0;
#X obj 139 274 s quarterMS;
#X obj 118 310 expr (($f1 * 4) * $f2);
#X obj 118 447 s totalLoopMS;
#X floatatom 68 260 5 0 0 0 - - - 0;
#X obj 326 67 r syncroniser;
#X obj 118 364 * 44.1;
#X obj 118 223 expr (60000/$f1);
#X obj 110 38 t b f, f 14;
#X obj 326 151 s quarterBang;
#X obj 205 109 nbx 3 18 -1e+37 1e+37 0 0 empty empty Loop_Bars 50 11 0 12 #fbefd0 #000000 #000000 0 256;
#X obj 111 109 nbx 3 18 -1e+37 1e+37 0 0 empty empty BPM 50 11 0 12 #fbefd0 #000000 #000000 0 256;
#X obj 184 364 s misureTotaliMS;
#X connect 1 0 12 0;
#X connect 2 0 15 0;
#X connect 3 0 14 0;
#X connect 4 0 13 0;
#X connect 6 0 10 0;
#X connect 6 0 16 0;
#X connect 9 0 4 0;
#X connect 10 0 7 0;
#X connect 11 0 5 0;
#X connect 11 0 6 0;
#X connect 11 0 8 0;
#X connect 12 0 2 0;
#X connect 12 1 3 0;
#X connect 14 0 6 1;
#X connect 15 0 11 0;
