#N canvas 0 61 1235 694 12;
#X obj 101 101 cnv 19 646 263 empty empty empty 20 12 0 12 #feddb9 #404040 0;
#N canvas 68 54 1305 833 kickSeq 0;
#X obj 101 101 cnv 19 513 63 empty empty empty 20 12 0 12 #fcefd1 #404040 0;
#X obj 145 130 tgl 25 0 empty empty empty 0 -10 0 12 #f79386 #ffffff #000000 0 1;
#X obj 174 130 tgl 25 0 empty empty empty 0 -10 0 12 #ffc7c6 #000000 #000000 0 1;
#X obj 583 534 t b b;
#X obj 583 630 readsf~;
#X msg 615 566 open Kick.wav;
#X obj 583 689 *~;
#X msg 747 599 \$1 10;
#X obj 110 130 knob 25 0 1 0 0 empty empty #f79386 #dfdfdf #000000 0 0 0 0 1 320 0 0 0 empty empty 0 12 6 -15 0 1 0 0;
#X obj 161 44 loadbang;
#X msg 161 68 0;
#X obj 747 628 vline~;
#X obj 203 130 tgl 25 0 empty empty empty 0 -10 0 12 #ffc7c6 #000000 #000000 0 1;
#X obj 232 130 tgl 25 0 empty empty empty 0 -10 0 12 #ffc7c6 #000000 #000000 0 1;
#X obj 261 130 tgl 25 0 empty empty empty 0 -10 0 12 #f79386 #ffffff #000000 0 1;
#X obj 290 130 tgl 25 0 empty empty empty 0 -10 0 12 #ffc7c6 #000000 #000000 0 1;
#X obj 319 130 tgl 25 0 empty empty empty 0 -10 0 12 #ffc7c6 #000000 #000000 0 1;
#X obj 348 130 tgl 25 0 empty empty empty 0 -10 0 12 #ffc7c6 #000000 #000000 0 1;
#X obj 377 130 tgl 25 0 empty empty empty 0 -10 0 12 #f79386 #ffffff #000000 0 1;
#X obj 406 130 tgl 25 0 empty empty empty 0 -10 0 12 #ffc7c6 #000000 #000000 0 1;
#X obj 435 130 tgl 25 0 empty empty empty 0 -10 0 12 #ffc7c6 #000000 #000000 0 1;
#X obj 464 130 tgl 25 0 empty empty empty 0 -10 0 12 #ffc7c6 #000000 #000000 0 1;
#X obj 493 130 tgl 25 0 empty empty empty 0 -10 0 12 #f79386 #ffffff #000000 0 1;
#X obj 522 130 tgl 25 0 empty empty empty 0 -10 0 12 #ffc7c6 #000000 #000000 0 1;
#X obj 551 130 tgl 25 0 empty empty empty 0 -10 0 12 #ffc7c6 #000000 #000000 0 1;
#X obj 580 130 tgl 25 0 empty empty empty 0 -10 0 12 #ffc7c6 #000000 #000000 0 1;
#X obj 135 348 spigot;
#X obj 135 324 bng 19 250 50 0 empty empty empty 0 -10 0 12 #fcfcfc #000000 #000000;
#X obj 135 372 bng 19 250 50 0 empty empty empty 0 -10 0 12 #fcfcfc #000000 #000000;
#X obj 201 348 spigot;
#X obj 201 324 bng 19 250 50 0 empty empty empty 0 -10 0 12 #fcfcfc #000000 #000000;
#X obj 201 372 bng 19 250 50 0 empty empty empty 0 -10 0 12 #fcfcfc #000000 #000000;
#X obj 267 348 spigot;
#X obj 267 324 bng 19 250 50 0 empty empty empty 0 -10 0 12 #fcfcfc #000000 #000000;
#X obj 267 372 bng 19 250 50 0 empty empty empty 0 -10 0 12 #fcfcfc #000000 #000000;
#X obj 333 348 spigot;
#X obj 333 324 bng 19 250 50 0 empty empty empty 0 -10 0 12 #fcfcfc #000000 #000000;
#X obj 333 372 bng 19 250 50 0 empty empty empty 0 -10 0 12 #fcfcfc #000000 #000000;
#X obj 399 348 spigot;
#X obj 399 324 bng 19 250 50 0 empty empty empty 0 -10 0 12 #fcfcfc #000000 #000000;
#X obj 399 372 bng 19 250 50 0 empty empty empty 0 -10 0 12 #fcfcfc #000000 #000000;
#X obj 465 348 spigot;
#X obj 465 324 bng 19 250 50 0 empty empty empty 0 -10 0 12 #fcfcfc #000000 #000000;
#X obj 465 372 bng 19 250 50 0 empty empty empty 0 -10 0 12 #fcfcfc #000000 #000000;
#X obj 531 348 spigot;
#X obj 531 324 bng 19 250 50 0 empty empty empty 0 -10 0 12 #fcfcfc #000000 #000000;
#X obj 531 372 bng 19 250 50 0 empty empty empty 0 -10 0 12 #fcfcfc #000000 #000000;
#X obj 597 348 spigot;
#X obj 597 324 bng 19 250 50 0 empty empty empty 0 -10 0 12 #fcfcfc #000000 #000000;
#X obj 597 372 bng 19 250 50 0 empty empty empty 0 -10 0 12 #fcfcfc #000000 #000000;
#X obj 663 348 spigot;
#X obj 663 324 bng 19 250 50 0 empty empty empty 0 -10 0 12 #fcfcfc #000000 #000000;
#X obj 663 372 bng 19 250 50 0 empty empty empty 0 -10 0 12 #fcfcfc #000000 #000000;
#X obj 729 348 spigot;
#X obj 729 324 bng 19 250 50 0 empty empty empty 0 -10 0 12 #fcfcfc #000000 #000000;
#X obj 729 372 bng 19 250 50 0 empty empty empty 0 -10 0 12 #fcfcfc #000000 #000000;
#X obj 795 348 spigot;
#X obj 795 324 bng 19 250 50 0 empty empty empty 0 -10 0 12 #fcfcfc #000000 #000000;
#X obj 795 372 bng 19 250 50 0 empty empty empty 0 -10 0 12 #fcfcfc #000000 #000000;
#X obj 861 348 spigot;
#X obj 861 324 bng 19 250 50 0 empty empty empty 0 -10 0 12 #fcfcfc #000000 #000000;
#X obj 861 372 bng 19 250 50 0 empty empty empty 0 -10 0 12 #fcfcfc #000000 #000000;
#X obj 927 348 spigot;
#X obj 927 324 bng 19 250 50 0 empty empty empty 0 -10 0 12 #fcfcfc #000000 #000000;
#X obj 927 372 bng 19 250 50 0 empty empty empty 0 -10 0 12 #fcfcfc #000000 #000000;
#X obj 993 348 spigot;
#X obj 993 324 bng 19 250 50 0 empty empty empty 0 -10 0 12 #fcfcfc #000000 #000000;
#X obj 993 372 bng 19 250 50 0 empty empty empty 0 -10 0 12 #fcfcfc #000000 #000000;
#X obj 1059 348 spigot;
#X obj 1059 324 bng 19 250 50 0 empty empty empty 0 -10 0 12 #fcfcfc #000000 #000000;
#X obj 1059 372 bng 19 250 50 0 empty empty empty 0 -10 0 12 #fcfcfc #000000 #000000;
#X obj 1125 348 spigot;
#X obj 1125 324 bng 19 250 50 0 empty empty empty 0 -10 0 12 #fcfcfc #000000 #000000;
#X obj 1125 372 bng 19 250 50 0 empty empty empty 0 -10 0 12 #fcfcfc #000000 #000000;
#X obj 583 726 throw~ kickTrack;
#X obj 135 290 r s1;
#X obj 201 290 r s2;
#X obj 267 290 r s3;
#X obj 333 290 r s4;
#X obj 399 290 r s5;
#X obj 465 290 r s6;
#X obj 531 290 r s7;
#X obj 597 290 r s8;
#X obj 663 290 r s9;
#X obj 729 290 r s10;
#X obj 795 290 r s11;
#X obj 861 290 r s12;
#X obj 927 290 r s13;
#X obj 993 290 r s14;
#X obj 1059 290 r s15;
#X obj 1125 290 r s16;
#X msg 583 594 start;
#X obj 583 504 bng 19 250 50 0 empty empty empty 0 -10 0 12 #fcfcfc #000000 #000000;
#X text 109 107 Kick;
#X connect 1 0 26 1;
#X connect 2 0 29 1;
#X connect 3 0 91 0;
#X connect 3 1 5 0;
#X connect 4 0 6 0;
#X connect 5 0 4 0;
#X connect 6 0 74 0;
#X connect 7 0 11 0;
#X connect 8 0 7 0;
#X connect 9 0 10 0;
#X connect 10 0 1 0;
#X connect 11 0 6 1;
#X connect 12 0 32 1;
#X connect 13 0 35 1;
#X connect 14 0 38 1;
#X connect 15 0 41 1;
#X connect 16 0 44 1;
#X connect 17 0 47 1;
#X connect 18 0 50 1;
#X connect 19 0 53 1;
#X connect 20 0 56 1;
#X connect 21 0 59 1;
#X connect 22 0 62 1;
#X connect 23 0 65 1;
#X connect 24 0 68 1;
#X connect 25 0 71 1;
#X connect 26 0 28 0;
#X connect 27 0 26 0;
#X connect 28 0 92 0;
#X connect 29 0 31 0;
#X connect 30 0 29 0;
#X connect 31 0 92 0;
#X connect 32 0 34 0;
#X connect 33 0 32 0;
#X connect 34 0 92 0;
#X connect 35 0 37 0;
#X connect 36 0 35 0;
#X connect 37 0 92 0;
#X connect 38 0 40 0;
#X connect 39 0 38 0;
#X connect 40 0 92 0;
#X connect 41 0 43 0;
#X connect 42 0 41 0;
#X connect 43 0 92 0;
#X connect 44 0 46 0;
#X connect 45 0 44 0;
#X connect 46 0 92 0;
#X connect 47 0 49 0;
#X connect 48 0 47 0;
#X connect 49 0 92 0;
#X connect 50 0 52 0;
#X connect 51 0 50 0;
#X connect 52 0 92 0;
#X connect 53 0 55 0;
#X connect 54 0 53 0;
#X connect 55 0 92 0;
#X connect 56 0 58 0;
#X connect 57 0 56 0;
#X connect 58 0 92 0;
#X connect 59 0 61 0;
#X connect 60 0 59 0;
#X connect 61 0 92 0;
#X connect 62 0 64 0;
#X connect 63 0 62 0;
#X connect 64 0 92 0;
#X connect 65 0 67 0;
#X connect 66 0 65 0;
#X connect 67 0 92 0;
#X connect 68 0 70 0;
#X connect 69 0 68 0;
#X connect 70 0 92 0;
#X connect 71 0 73 0;
#X connect 72 0 71 0;
#X connect 73 0 92 0;
#X connect 75 0 27 0;
#X connect 76 0 30 0;
#X connect 77 0 33 0;
#X connect 78 0 36 0;
#X connect 79 0 39 0;
#X connect 80 0 42 0;
#X connect 81 0 45 0;
#X connect 82 0 48 0;
#X connect 83 0 51 0;
#X connect 84 0 54 0;
#X connect 85 0 57 0;
#X connect 86 0 60 0;
#X connect 87 0 63 0;
#X connect 88 0 66 0;
#X connect 89 0 69 0;
#X connect 90 0 72 0;
#X connect 91 0 4 0;
#X connect 92 0 3 0;
#X coords 0 -1 1 1 515 65 2 100 100;
#X restore 110 140 pd kickSeq;
#X text 108 111 Drum Sequencer;
#N canvas 34 72 1263 802 vol_fx_control 0;
#X obj 101 101 cnv 19 100 213 empty empty empty 20 12 0 12 #fcefd1 #404040 0;
#X obj 237 688 *~;
#X obj 111 132 vsl 20 170 0 1 0 0 empty empty Volume 0 -14 0 12 #ffc7c6 #000000 #000000 0 1;
#X obj 573 344 multiFilter_abs~;
#X obj 657 186 + 100;
#X obj 657 210 dbtorms;
#X msg 600 258 \$1 100;
#X obj 600 282 line~;
#X msg 656 258 \$1 100;
#X obj 656 282 line~;
#X floatatom 657 232 5 0 0 0 - - - 0;
#X obj 657 167 nbx 5 14 -1e+37 1e+37 0 1 empty empty empty 0 -8 0 10 #fcfcfc #000000 #000000 3 256;
#X obj 712 235 nbx 5 14 -1e+37 1e+37 0 1 empty empty empty 0 -8 0 10 #fcfcfc #000000 #000000 0 256;
#X obj 600 227 mtof;
#X msg 712 257 \$1 100;
#X obj 712 281 line~;
#X obj 886 315 s filt_type;
#X obj 702 315 r filt_type;
#X msg 949 185 lowpass \$1;
#X msg 949 232 highpass \$1;
#X obj 949 165 tgl 15 0 empty empty empty 17 7 0 10 #fcfcfc #000000 #000000 0 1;
#X obj 949 212 tgl 15 0 empty empty empty 17 7 0 10 #fcfcfc #000000 #000000 0 1;
#X msg 950 282 resonant \$1;
#X obj 950 262 tgl 15 0 empty empty empty 17 7 0 10 #fcfcfc #000000 #000000 0 1;
#X obj 572 384 +~;
#X obj 572 409 *~ 0.5;
#X obj 949 94 loadbang;
#X obj 949 117 t b f;
#X msg 949 141 1;
#X obj 551 566 *~;
#X obj 611 565 *~;
#X obj 551 607 freeverb~;
#X msg 141 325 wet \$1;
#X msg 1074 573 dry \$1;
#X obj 1074 401 vsl 19 162 0 1 0 0 empty empty empty 0 -9 0 12 #fcfcfc #000000 #000000 0 1;
#X obj 1074 348 loadbang;
#X msg 1074 372 1;
#X text 1018 605 always send dry signal;
#X obj 141 255 knob 50 0 1 0 0 empty empty #e3c6ff #7c7c7c black 0 0 0 0 1 320 0 0 0 empty empty 0 12 6 -15 0 1 0 0;
#X text 144 232 Reverb;
#X obj 141 175 knob 50 0 127 0 0 empty empty #e3c6ff #7c7c7c black 0 0 0 0 1 320 0 0 0 empty empty 0 12 6 -15 0 1 0 0;
#X text 143 152 Filter;
#X obj 379 59 catch~ hatTrack;
#X obj 495 59 catch~ kickTrack;
#X obj 618 59 catch~ snareTrack;
#X obj 237 761 throw~ drumsMaster;
#X obj 255 614 vline~;
#X msg 255 588 \$1 10;
#X obj 240 172 loadbang;
#X msg 240 196 127;
#X connect 1 0 45 0;
#X connect 2 0 47 0;
#X connect 3 0 24 0;
#X connect 3 1 24 0;
#X connect 3 7 24 1;
#X connect 4 0 5 0;
#X connect 5 0 10 0;
#X connect 6 0 7 0;
#X connect 7 0 3 1;
#X connect 8 0 9 0;
#X connect 9 0 3 2;
#X connect 10 0 8 0;
#X connect 11 0 4 0;
#X connect 12 0 14 0;
#X connect 13 0 6 0;
#X connect 14 0 15 0;
#X connect 15 0 3 3;
#X connect 17 0 3 4;
#X connect 18 0 16 0;
#X connect 19 0 16 0;
#X connect 20 0 18 0;
#X connect 21 0 19 0;
#X connect 22 0 16 0;
#X connect 23 0 22 0;
#X connect 24 0 25 0;
#X connect 25 0 29 0;
#X connect 25 0 30 0;
#X connect 25 0 29 1;
#X connect 25 0 30 1;
#X connect 26 0 27 0;
#X connect 27 0 28 0;
#X connect 28 0 20 0;
#X connect 29 0 31 0;
#X connect 30 0 31 1;
#X connect 31 0 1 0;
#X connect 32 0 31 0;
#X connect 33 0 31 0;
#X connect 34 0 33 0;
#X connect 35 0 36 0;
#X connect 36 0 34 0;
#X connect 38 0 32 0;
#X connect 40 0 13 0;
#X connect 42 0 3 0;
#X connect 43 0 3 0;
#X connect 44 0 3 0;
#X connect 46 0 1 1;
#X connect 47 0 46 0;
#X connect 48 0 49 0;
#X connect 49 0 40 0;
#X coords 0 -1 1 1 102 215 2 100 100;
#X restore 635 140 pd vol_fx_control;
#N canvas 34 72 1263 802 snareSeq 0;
#X obj 101 101 cnv 19 513 63 empty empty empty 20 12 0 12 #fcefd1 #404040 0;
#X obj 145 130 tgl 25 0 empty empty empty 0 -10 0 12 #f9b487 #ffffff #000000 0 1;
#X obj 174 130 tgl 25 0 empty empty empty 0 -10 0 12 #ffe3c6 #000000 #000000 0 1;
#X obj 583 534 t b b;
#X obj 583 630 readsf~;
#X obj 583 689 *~;
#X msg 747 599 \$1 10;
#X obj 110 130 knob 25 0 1 0 0 empty empty #f8b386 #dfdfdf #000000 0 0 0 0 1 320 0 0 0 empty empty 0 12 6 -15 0 1 0 0;
#X obj 161 44 loadbang;
#X msg 161 68 0;
#X obj 747 628 vline~;
#X obj 203 130 tgl 25 0 empty empty empty 0 -10 0 12 #ffe3c6 #000000 #000000 0 1;
#X obj 232 130 tgl 25 0 empty empty empty 0 -10 0 12 #ffe3c6 #000000 #000000 0 1;
#X obj 261 130 tgl 25 0 empty empty empty 0 -10 0 12 #f8b386 #ffffff #000000 0 1;
#X obj 290 130 tgl 25 0 empty empty empty 0 -10 0 12 #ffe3c6 #000000 #000000 0 1;
#X obj 319 130 tgl 25 0 empty empty empty 0 -10 0 12 #ffe3c6 #000000 #000000 0 1;
#X obj 348 130 tgl 25 0 empty empty empty 0 -10 0 12 #ffe3c6 #000000 #000000 0 1;
#X obj 377 130 tgl 25 0 empty empty empty 0 -10 0 12 #f8b386 #ffffff #000000 0 1;
#X obj 406 130 tgl 25 0 empty empty empty 0 -10 0 12 #ffe3c6 #000000 #000000 0 1;
#X obj 435 130 tgl 25 0 empty empty empty 0 -10 0 12 #ffe3c6 #000000 #000000 0 1;
#X obj 464 130 tgl 25 0 empty empty empty 0 -10 0 12 #ffe3c6 #000000 #000000 0 1;
#X obj 493 130 tgl 25 0 empty empty empty 0 -10 0 12 #f8b386 #ffffff #000000 0 1;
#X obj 522 130 tgl 25 0 empty empty empty 0 -10 0 12 #ffe3c6 #000000 #000000 0 1;
#X obj 551 130 tgl 25 0 empty empty empty 0 -10 0 12 #ffe3c6 #000000 #000000 0 1;
#X obj 580 130 tgl 25 0 empty empty empty 0 -10 0 12 #ffe3c6 #000000 #000000 0 1;
#X obj 135 348 spigot;
#X obj 135 324 bng 19 250 50 0 empty empty empty 0 -10 0 12 #fcfcfc #000000 #000000;
#X obj 135 372 bng 19 250 50 0 empty empty empty 0 -10 0 12 #fcfcfc #000000 #000000;
#X obj 201 348 spigot;
#X obj 201 324 bng 19 250 50 0 empty empty empty 0 -10 0 12 #fcfcfc #000000 #000000;
#X obj 201 372 bng 19 250 50 0 empty empty empty 0 -10 0 12 #fcfcfc #000000 #000000;
#X obj 267 348 spigot;
#X obj 267 324 bng 19 250 50 0 empty empty empty 0 -10 0 12 #fcfcfc #000000 #000000;
#X obj 267 372 bng 19 250 50 0 empty empty empty 0 -10 0 12 #fcfcfc #000000 #000000;
#X obj 333 348 spigot;
#X obj 333 324 bng 19 250 50 0 empty empty empty 0 -10 0 12 #fcfcfc #000000 #000000;
#X obj 333 372 bng 19 250 50 0 empty empty empty 0 -10 0 12 #fcfcfc #000000 #000000;
#X obj 399 348 spigot;
#X obj 399 324 bng 19 250 50 0 empty empty empty 0 -10 0 12 #fcfcfc #000000 #000000;
#X obj 399 372 bng 19 250 50 0 empty empty empty 0 -10 0 12 #fcfcfc #000000 #000000;
#X obj 465 348 spigot;
#X obj 465 324 bng 19 250 50 0 empty empty empty 0 -10 0 12 #fcfcfc #000000 #000000;
#X obj 465 372 bng 19 250 50 0 empty empty empty 0 -10 0 12 #fcfcfc #000000 #000000;
#X obj 531 348 spigot;
#X obj 531 324 bng 19 250 50 0 empty empty empty 0 -10 0 12 #fcfcfc #000000 #000000;
#X obj 531 372 bng 19 250 50 0 empty empty empty 0 -10 0 12 #fcfcfc #000000 #000000;
#X obj 597 348 spigot;
#X obj 597 324 bng 19 250 50 0 empty empty empty 0 -10 0 12 #fcfcfc #000000 #000000;
#X obj 597 372 bng 19 250 50 0 empty empty empty 0 -10 0 12 #fcfcfc #000000 #000000;
#X obj 663 348 spigot;
#X obj 663 324 bng 19 250 50 0 empty empty empty 0 -10 0 12 #fcfcfc #000000 #000000;
#X obj 663 372 bng 19 250 50 0 empty empty empty 0 -10 0 12 #fcfcfc #000000 #000000;
#X obj 729 348 spigot;
#X obj 729 324 bng 19 250 50 0 empty empty empty 0 -10 0 12 #fcfcfc #000000 #000000;
#X obj 729 372 bng 19 250 50 0 empty empty empty 0 -10 0 12 #fcfcfc #000000 #000000;
#X obj 795 348 spigot;
#X obj 795 324 bng 19 250 50 0 empty empty empty 0 -10 0 12 #fcfcfc #000000 #000000;
#X obj 795 372 bng 19 250 50 0 empty empty empty 0 -10 0 12 #fcfcfc #000000 #000000;
#X obj 861 348 spigot;
#X obj 861 324 bng 19 250 50 0 empty empty empty 0 -10 0 12 #fcfcfc #000000 #000000;
#X obj 861 372 bng 19 250 50 0 empty empty empty 0 -10 0 12 #fcfcfc #000000 #000000;
#X obj 927 348 spigot;
#X obj 927 324 bng 19 250 50 0 empty empty empty 0 -10 0 12 #fcfcfc #000000 #000000;
#X obj 927 372 bng 19 250 50 0 empty empty empty 0 -10 0 12 #fcfcfc #000000 #000000;
#X obj 993 348 spigot;
#X obj 993 324 bng 19 250 50 0 empty empty empty 0 -10 0 12 #fcfcfc #000000 #000000;
#X obj 993 372 bng 19 250 50 0 empty empty empty 0 -10 0 12 #fcfcfc #000000 #000000;
#X obj 1059 348 spigot;
#X obj 1059 324 bng 19 250 50 0 empty empty empty 0 -10 0 12 #fcfcfc #000000 #000000;
#X obj 1059 372 bng 19 250 50 0 empty empty empty 0 -10 0 12 #fcfcfc #000000 #000000;
#X obj 1125 348 spigot;
#X obj 1125 324 bng 19 250 50 0 empty empty empty 0 -10 0 12 #fcfcfc #000000 #000000;
#X obj 1125 372 bng 19 250 50 0 empty empty empty 0 -10 0 12 #fcfcfc #000000 #000000;
#X obj 135 290 r s1;
#X obj 201 290 r s2;
#X obj 267 290 r s3;
#X obj 333 290 r s4;
#X obj 399 290 r s5;
#X obj 465 290 r s6;
#X obj 531 290 r s7;
#X obj 597 290 r s8;
#X obj 663 290 r s9;
#X obj 729 290 r s10;
#X obj 795 290 r s11;
#X obj 861 290 r s12;
#X obj 927 290 r s13;
#X obj 993 290 r s14;
#X obj 1059 290 r s15;
#X obj 1125 290 r s16;
#X msg 583 594 start;
#X obj 583 504 bng 19 250 50 0 empty empty empty 0 -10 0 12 #fcfcfc #000000 #000000;
#X text 109 107 Snare;
#X msg 615 566 open Snare.wav;
#X obj 583 726 throw~ snareTrack;
#X connect 1 0 25 1;
#X connect 2 0 28 1;
#X connect 3 0 89 0;
#X connect 3 1 92 0;
#X connect 4 0 5 0;
#X connect 5 0 93 0;
#X connect 6 0 10 0;
#X connect 7 0 6 0;
#X connect 8 0 9 0;
#X connect 9 0 1 0;
#X connect 10 0 5 1;
#X connect 11 0 31 1;
#X connect 12 0 34 1;
#X connect 13 0 37 1;
#X connect 14 0 40 1;
#X connect 15 0 43 1;
#X connect 16 0 46 1;
#X connect 17 0 49 1;
#X connect 18 0 52 1;
#X connect 19 0 55 1;
#X connect 20 0 58 1;
#X connect 21 0 61 1;
#X connect 22 0 64 1;
#X connect 23 0 67 1;
#X connect 24 0 70 1;
#X connect 25 0 27 0;
#X connect 26 0 25 0;
#X connect 27 0 90 0;
#X connect 28 0 30 0;
#X connect 29 0 28 0;
#X connect 30 0 90 0;
#X connect 31 0 33 0;
#X connect 32 0 31 0;
#X connect 33 0 90 0;
#X connect 34 0 36 0;
#X connect 35 0 34 0;
#X connect 36 0 90 0;
#X connect 37 0 39 0;
#X connect 38 0 37 0;
#X connect 39 0 90 0;
#X connect 40 0 42 0;
#X connect 41 0 40 0;
#X connect 42 0 90 0;
#X connect 43 0 45 0;
#X connect 44 0 43 0;
#X connect 45 0 90 0;
#X connect 46 0 48 0;
#X connect 47 0 46 0;
#X connect 48 0 90 0;
#X connect 49 0 51 0;
#X connect 50 0 49 0;
#X connect 51 0 90 0;
#X connect 52 0 54 0;
#X connect 53 0 52 0;
#X connect 54 0 90 0;
#X connect 55 0 57 0;
#X connect 56 0 55 0;
#X connect 57 0 90 0;
#X connect 58 0 60 0;
#X connect 59 0 58 0;
#X connect 60 0 90 0;
#X connect 61 0 63 0;
#X connect 62 0 61 0;
#X connect 63 0 90 0;
#X connect 64 0 66 0;
#X connect 65 0 64 0;
#X connect 66 0 90 0;
#X connect 67 0 69 0;
#X connect 68 0 67 0;
#X connect 69 0 90 0;
#X connect 70 0 72 0;
#X connect 71 0 70 0;
#X connect 72 0 90 0;
#X connect 73 0 26 0;
#X connect 74 0 29 0;
#X connect 75 0 32 0;
#X connect 76 0 35 0;
#X connect 77 0 38 0;
#X connect 78 0 41 0;
#X connect 79 0 44 0;
#X connect 80 0 47 0;
#X connect 81 0 50 0;
#X connect 82 0 53 0;
#X connect 83 0 56 0;
#X connect 84 0 59 0;
#X connect 85 0 62 0;
#X connect 86 0 65 0;
#X connect 87 0 68 0;
#X connect 88 0 71 0;
#X connect 89 0 4 0;
#X connect 90 0 3 0;
#X connect 92 0 4 0;
#X coords 0 -1 1 1 515 65 1 100 100;
#X restore 110 215 pd snareSeq;
#N canvas 33 72 1423 854 hihatSeq 0;
#X obj 101 101 cnv 19 513 63 empty empty empty 20 12 0 12 #fcefd1 #404040 0;
#X obj 145 130 tgl 25 0 empty empty empty 0 -10 0 12 #faff00 #000000 #000000 0 1;
#X obj 174 130 tgl 25 0 empty empty empty 0 -10 0 12 #feffc6 #000000 #000000 0 1;
#X obj 583 534 t b b;
#X obj 583 630 readsf~;
#X obj 583 689 *~;
#X msg 747 599 \$1 10;
#X obj 110 130 knob 25 0 1 0 0 empty empty #faff00 #dfdfdf #000000 0 0 0 0 1 320 0 0 0 empty empty 0 12 6 -15 0 1 0 0;
#X obj 161 44 loadbang;
#X msg 161 68 0;
#X obj 747 628 vline~;
#X obj 203 130 tgl 25 0 empty empty empty 0 -10 0 12 #feffc6 #000000 #000000 0 1;
#X obj 232 130 tgl 25 0 empty empty empty 0 -10 0 12 #feffc6 #000000 #000000 0 1;
#X obj 261 130 tgl 25 0 empty empty empty 0 -10 0 12 #faff00 #000000 #000000 0 1;
#X obj 290 130 tgl 25 0 empty empty empty 0 -10 0 12 #feffc6 #000000 #000000 0 1;
#X obj 319 130 tgl 25 0 empty empty empty 0 -10 0 12 #feffc6 #000000 #000000 0 1;
#X obj 348 130 tgl 25 0 empty empty empty 0 -10 0 12 #feffc6 #000000 #000000 0 1;
#X obj 377 130 tgl 25 0 empty empty empty 0 -10 0 12 #faff00 #000000 #000000 0 1;
#X obj 406 130 tgl 25 0 empty empty empty 0 -10 0 12 #feffc6 #000000 #000000 0 1;
#X obj 435 130 tgl 25 0 empty empty empty 0 -10 0 12 #feffc6 #000000 #000000 0 1;
#X obj 464 130 tgl 25 0 empty empty empty 0 -10 0 12 #feffc6 #000000 #000000 0 1;
#X obj 493 130 tgl 25 0 empty empty empty 0 -10 0 12 #faff00 #000000 #000000 0 1;
#X obj 522 130 tgl 25 0 empty empty empty 0 -10 0 12 #feffc6 #000000 #000000 0 1;
#X obj 551 130 tgl 25 0 empty empty empty 0 -10 0 12 #feffc6 #000000 #000000 0 1;
#X obj 580 130 tgl 25 0 empty empty empty 0 -10 0 12 #feffc6 #000000 #000000 0 1;
#X obj 135 348 spigot;
#X obj 135 324 bng 19 250 50 0 empty empty empty 0 -10 0 12 #fcfcfc #000000 #000000;
#X obj 135 372 bng 19 250 50 0 empty empty empty 0 -10 0 12 #fcfcfc #000000 #000000;
#X obj 201 348 spigot;
#X obj 201 324 bng 19 250 50 0 empty empty empty 0 -10 0 12 #fcfcfc #000000 #000000;
#X obj 201 372 bng 19 250 50 0 empty empty empty 0 -10 0 12 #fcfcfc #000000 #000000;
#X obj 267 348 spigot;
#X obj 267 324 bng 19 250 50 0 empty empty empty 0 -10 0 12 #fcfcfc #000000 #000000;
#X obj 267 372 bng 19 250 50 0 empty empty empty 0 -10 0 12 #fcfcfc #000000 #000000;
#X obj 333 348 spigot;
#X obj 333 324 bng 19 250 50 0 empty empty empty 0 -10 0 12 #fcfcfc #000000 #000000;
#X obj 333 372 bng 19 250 50 0 empty empty empty 0 -10 0 12 #fcfcfc #000000 #000000;
#X obj 399 348 spigot;
#X obj 399 324 bng 19 250 50 0 empty empty empty 0 -10 0 12 #fcfcfc #000000 #000000;
#X obj 399 372 bng 19 250 50 0 empty empty empty 0 -10 0 12 #fcfcfc #000000 #000000;
#X obj 465 348 spigot;
#X obj 465 324 bng 19 250 50 0 empty empty empty 0 -10 0 12 #fcfcfc #000000 #000000;
#X obj 465 372 bng 19 250 50 0 empty empty empty 0 -10 0 12 #fcfcfc #000000 #000000;
#X obj 531 348 spigot;
#X obj 531 324 bng 19 250 50 0 empty empty empty 0 -10 0 12 #fcfcfc #000000 #000000;
#X obj 531 372 bng 19 250 50 0 empty empty empty 0 -10 0 12 #fcfcfc #000000 #000000;
#X obj 597 348 spigot;
#X obj 597 324 bng 19 250 50 0 empty empty empty 0 -10 0 12 #fcfcfc #000000 #000000;
#X obj 597 372 bng 19 250 50 0 empty empty empty 0 -10 0 12 #fcfcfc #000000 #000000;
#X obj 663 348 spigot;
#X obj 663 324 bng 19 250 50 0 empty empty empty 0 -10 0 12 #fcfcfc #000000 #000000;
#X obj 663 372 bng 19 250 50 0 empty empty empty 0 -10 0 12 #fcfcfc #000000 #000000;
#X obj 729 348 spigot;
#X obj 729 324 bng 19 250 50 0 empty empty empty 0 -10 0 12 #fcfcfc #000000 #000000;
#X obj 729 372 bng 19 250 50 0 empty empty empty 0 -10 0 12 #fcfcfc #000000 #000000;
#X obj 795 348 spigot;
#X obj 795 324 bng 19 250 50 0 empty empty empty 0 -10 0 12 #fcfcfc #000000 #000000;
#X obj 795 372 bng 19 250 50 0 empty empty empty 0 -10 0 12 #fcfcfc #000000 #000000;
#X obj 861 348 spigot;
#X obj 861 324 bng 19 250 50 0 empty empty empty 0 -10 0 12 #fcfcfc #000000 #000000;
#X obj 861 372 bng 19 250 50 0 empty empty empty 0 -10 0 12 #fcfcfc #000000 #000000;
#X obj 927 348 spigot;
#X obj 927 324 bng 19 250 50 0 empty empty empty 0 -10 0 12 #fcfcfc #000000 #000000;
#X obj 927 372 bng 19 250 50 0 empty empty empty 0 -10 0 12 #fcfcfc #000000 #000000;
#X obj 993 348 spigot;
#X obj 993 324 bng 19 250 50 0 empty empty empty 0 -10 0 12 #fcfcfc #000000 #000000;
#X obj 993 372 bng 19 250 50 0 empty empty empty 0 -10 0 12 #fcfcfc #000000 #000000;
#X obj 1059 348 spigot;
#X obj 1059 324 bng 19 250 50 0 empty empty empty 0 -10 0 12 #fcfcfc #000000 #000000;
#X obj 1059 372 bng 19 250 50 0 empty empty empty 0 -10 0 12 #fcfcfc #000000 #000000;
#X obj 1125 348 spigot;
#X obj 1125 324 bng 19 250 50 0 empty empty empty 0 -10 0 12 #fcfcfc #000000 #000000;
#X obj 1125 372 bng 19 250 50 0 empty empty empty 0 -10 0 12 #fcfcfc #000000 #000000;
#X obj 135 290 r s1;
#X obj 201 290 r s2;
#X obj 267 290 r s3;
#X obj 333 290 r s4;
#X obj 399 290 r s5;
#X obj 465 290 r s6;
#X obj 531 290 r s7;
#X obj 597 290 r s8;
#X obj 663 290 r s9;
#X obj 729 290 r s10;
#X obj 795 290 r s11;
#X obj 861 290 r s12;
#X obj 927 290 r s13;
#X obj 993 290 r s14;
#X obj 1059 290 r s15;
#X obj 1125 290 r s16;
#X msg 583 594 start;
#X obj 583 504 bng 19 250 50 0 empty empty empty 0 -10 0 12 #fcfcfc #000000 #000000;
#X text 109 107 Hi-hat;
#X obj 583 726 throw~ hatTrack;
#X msg 615 566 open Hat.wav;
#X connect 1 0 25 1;
#X connect 2 0 28 1;
#X connect 3 0 89 0;
#X connect 3 1 93 0;
#X connect 4 0 5 0;
#X connect 5 0 92 0;
#X connect 6 0 10 0;
#X connect 7 0 6 0;
#X connect 8 0 9 0;
#X connect 9 0 1 0;
#X connect 10 0 5 1;
#X connect 11 0 31 1;
#X connect 12 0 34 1;
#X connect 13 0 37 1;
#X connect 14 0 40 1;
#X connect 15 0 43 1;
#X connect 16 0 46 1;
#X connect 17 0 49 1;
#X connect 18 0 52 1;
#X connect 19 0 55 1;
#X connect 20 0 58 1;
#X connect 21 0 61 1;
#X connect 22 0 64 1;
#X connect 23 0 67 1;
#X connect 24 0 70 1;
#X connect 25 0 27 0;
#X connect 26 0 25 0;
#X connect 27 0 90 0;
#X connect 28 0 30 0;
#X connect 29 0 28 0;
#X connect 30 0 90 0;
#X connect 31 0 33 0;
#X connect 32 0 31 0;
#X connect 33 0 90 0;
#X connect 34 0 36 0;
#X connect 35 0 34 0;
#X connect 36 0 90 0;
#X connect 37 0 39 0;
#X connect 38 0 37 0;
#X connect 39 0 90 0;
#X connect 40 0 42 0;
#X connect 41 0 40 0;
#X connect 42 0 90 0;
#X connect 43 0 45 0;
#X connect 44 0 43 0;
#X connect 45 0 90 0;
#X connect 46 0 48 0;
#X connect 47 0 46 0;
#X connect 48 0 90 0;
#X connect 49 0 51 0;
#X connect 50 0 49 0;
#X connect 51 0 90 0;
#X connect 52 0 54 0;
#X connect 53 0 52 0;
#X connect 54 0 90 0;
#X connect 55 0 57 0;
#X connect 56 0 55 0;
#X connect 57 0 90 0;
#X connect 58 0 60 0;
#X connect 59 0 58 0;
#X connect 60 0 90 0;
#X connect 61 0 63 0;
#X connect 62 0 61 0;
#X connect 63 0 90 0;
#X connect 64 0 66 0;
#X connect 65 0 64 0;
#X connect 66 0 90 0;
#X connect 67 0 69 0;
#X connect 68 0 67 0;
#X connect 69 0 90 0;
#X connect 70 0 72 0;
#X connect 71 0 70 0;
#X connect 72 0 90 0;
#X connect 73 0 26 0;
#X connect 74 0 29 0;
#X connect 75 0 32 0;
#X connect 76 0 35 0;
#X connect 77 0 38 0;
#X connect 78 0 41 0;
#X connect 79 0 44 0;
#X connect 80 0 47 0;
#X connect 81 0 50 0;
#X connect 82 0 53 0;
#X connect 83 0 56 0;
#X connect 84 0 59 0;
#X connect 85 0 62 0;
#X connect 86 0 65 0;
#X connect 87 0 68 0;
#X connect 88 0 71 0;
#X connect 89 0 4 0;
#X connect 90 0 3 0;
#X connect 93 0 4 0;
#X coords 0 -1 1 1 515 65 1 100 100;
#X restore 110 290 pd hihatSeq;
#X obj 177 563 sel 0 1 2 3 4 5 6 7 8 9 10 11 12 13 14;
#X obj 55 717 s s1;
#X obj 97 717 s s2;
#X obj 140 717 s s3;
#X obj 182 717 s s4;
#X floatatom 177 535 5 0 0 0 - - - 0;
#X obj 224 717 s s5;
#X obj 266 717 s s6;
#X obj 308 717 s s7;
#X obj 350 717 s s8;
#X obj 392 717 s s9;
#X obj 434 717 s s10;
#X obj 483 717 s s11;
#X obj 532 717 s s12;
#X obj 581 717 s s13;
#X obj 630 717 s s14;
#X obj 679 717 s s15;
#X obj 728 717 s s16;
#X obj 177 469 metro 1000;
#X obj 250 384 r quarterMS;
#X obj 250 414 / 4;
#X obj 177 503 counter 0 0 15;
#X obj 260 469 sel 0;
#X msg 111 410 1;
#X msg 177 410 0;
#X obj 111 383 r drumOn;
#X obj 177 383 r drumOff;
#X connect 6 0 7 0;
#X connect 6 1 8 0;
#X connect 6 2 9 0;
#X connect 6 3 10 0;
#X connect 6 4 12 0;
#X connect 6 5 13 0;
#X connect 6 6 14 0;
#X connect 6 7 15 0;
#X connect 6 8 16 0;
#X connect 6 9 17 0;
#X connect 6 10 18 0;
#X connect 6 11 19 0;
#X connect 6 12 20 0;
#X connect 6 13 21 0;
#X connect 6 14 22 0;
#X connect 6 15 23 0;
#X connect 11 0 6 0;
#X connect 24 0 27 0;
#X connect 25 0 26 0;
#X connect 26 0 24 1;
#X connect 27 0 11 0;
#X connect 28 0 27 2;
#X connect 29 0 24 0;
#X connect 30 0 24 0;
#X connect 31 0 29 0;
#X connect 32 0 30 0;
