#N canvas 0 61 1235 694 12;
#X obj 101 101 cnv 19 138 263 empty empty empty 20 12 0 12 #bbbbbb #404040 0;
#X obj 111 137 cnv 19 118 220 empty empty empty 20 12 0 12 #dfdfdf #404040 0;
#N canvas 34 72 1478 854 start 0;
#X obj 100 100 tgl 26 0 empty empty empty 0 -10 0 12 #c6ffc7 #000000 #000000 0 1;
#X obj 191 107 r syncroniser;
#X obj 191 171 spigot;
#X obj 191 205 sel 0;
#X obj 191 239 tgl 19 0 empty empty empty 0 -10 0 12 #fcfcfc #000000 #000000 0 1;
#X obj 191 273 sel 1;
#X obj 191 317 outlet;
#X obj 296 147 loadbang;
#X msg 296 171 0;
#X connect 0 0 2 1;
#X connect 1 0 2 0;
#X connect 2 0 3 0;
#X connect 3 0 4 0;
#X connect 4 0 5 0;
#X connect 4 0 0 0;
#X connect 5 0 6 0;
#X connect 7 0 8 0;
#X connect 8 0 4 0;
#X coords 0 -1 1 1 26 26 2 100 100;
#X restore 131 246 pd start;
#N canvas 34 72 1478 854 start 0;
#X obj 100 100 tgl 26 0 empty empty empty 0 -10 0 12 #ffc7c6 #000000 #000000 0 1;
#X obj 191 147 r syncroniser;
#X obj 191 171 spigot;
#X obj 191 205 sel 0;
#X obj 191 239 tgl 19 0 empty empty empty 0 -10 0 12 #fcfcfc #000000 #000000 0 1;
#X obj 191 273 sel 1;
#X obj 191 317 outlet;
#X obj 296 147 loadbang;
#X msg 296 171 0;
#X connect 0 0 2 1;
#X connect 1 0 2 0;
#X connect 2 0 3 0;
#X connect 3 0 4 0;
#X connect 4 0 5 0;
#X connect 4 0 0 0;
#X connect 5 0 6 0;
#X connect 7 0 8 0;
#X connect 8 0 4 0;
#X coords 0 -1 1 1 26 26 2 100 100;
#X restore 183 246 pd start;
#X text 116 110 Master Controls;
#X obj 660 360 dac~;
#X obj 660 320 *~;
#X obj 141 147 knob 58 0 1 0 0 empty empty #75d5ff #c6feff #131255 0 0 0 0 1 320 0 0 0 empty empty 0 12 6 -15 0 1 0 0;
#X obj 678 293 vline~;
#X msg 678 267 \$1 10;
#X obj 363 219 catch~ drumsMaster;
#X obj 508 218 catch~ DFAMMaster;
#X text 150 223 Drums;
#N canvas 34 72 1478 854 start 0;
#X obj 100 100 tgl 26 0 empty empty empty 0 -10 0 12 #c6ffc7 #000000 #000000 0 1;
#X obj 191 107 r syncroniser;
#X obj 191 171 spigot;
#X obj 191 205 sel 0;
#X obj 191 239 tgl 19 0 empty empty empty 0 -10 0 12 #fcfcfc #000000 #000000 0 1;
#X obj 191 273 sel 1;
#X obj 191 317 outlet;
#X obj 296 147 loadbang;
#X msg 296 171 0;
#X connect 0 0 2 1;
#X connect 1 0 2 0;
#X connect 2 0 3 0;
#X connect 3 0 4 0;
#X connect 4 0 5 0;
#X connect 4 0 0 0;
#X connect 5 0 6 0;
#X connect 7 0 8 0;
#X connect 8 0 4 0;
#X coords 0 -1 1 1 26 26 2 100 100;
#X restore 131 312 pd start;
#N canvas 34 72 1478 854 start 0;
#X obj 100 100 tgl 26 0 empty empty empty 0 -10 0 12 #ffc7c6 #000000 #000000 0 1;
#X obj 191 147 r syncroniser;
#X obj 191 171 spigot;
#X obj 191 205 sel 0;
#X obj 191 239 tgl 19 0 empty empty empty 0 -10 0 12 #fcfcfc #000000 #000000 0 1;
#X obj 191 273 sel 1;
#X obj 191 317 outlet;
#X obj 296 147 loadbang;
#X msg 296 171 0;
#X connect 0 0 2 1;
#X connect 1 0 2 0;
#X connect 2 0 3 0;
#X connect 3 0 4 0;
#X connect 4 0 5 0;
#X connect 4 0 0 0;
#X connect 5 0 6 0;
#X connect 7 0 8 0;
#X connect 8 0 4 0;
#X coords 0 -1 1 1 26 26 2 100 100;
#X restore 183 312 pd start;
#X text 153 289 DFAM;
#X obj 131 403 s dfamOn;
#X obj 200 404 s dfamOff;
#X obj 650 213 catch~ externalMaster;
#X obj 44 376 s drumOn;
#X obj 253 367 s drumOff;
#X connect 2 0 19 0;
#X connect 3 0 20 0;
#X connect 6 0 5 0;
#X connect 6 0 5 1;
#X connect 7 0 9 0;
#X connect 8 0 6 1;
#X connect 9 0 8 0;
#X connect 10 0 6 0;
#X connect 11 0 6 0;
#X connect 13 0 16 0;
#X connect 14 0 17 0;
#X connect 18 0 6 0;
