#N canvas 35 72 500 372 12;
#X obj 25 26 loadbang;
#X msg 25 50 1;
#X obj 25 117 counter 0 0 3;
#X obj 25 198 s syncroniser;
#X obj 143 38 r quarterMS;
#X obj 25 85 metro 1000;
#X connect 0 0 1 0;
#X connect 1 0 5 0;
#X connect 2 0 3 0;
#X connect 4 0 5 1;
#X connect 5 0 2 0;
